<?xml version="1.0" encoding="UTF-8"?>
<svg version="1.1" xmlns="http://www.w3.org/2000/svg" width="709" height="158">
<path d="M0 0 C3.13968426 1.33990142 5.85291585 3.25639604 8.66015625 5.171875 C21.83122186 13.85151987 36.82298533 19.07849126 52.671875 19.6484375 C55.43028337 19.9515593 56.9497953 20.22645529 59.16015625 21.921875 C64.50014487 35.84968115 62.45768369 51.6020656 60.16015625 65.921875 C59.96306141 67.2850869 59.76645697 68.64836978 59.5703125 70.01171875 C54.68609871 102.25428214 38.65085125 130.95572387 12.3984375 150.55859375 C11.31999695 151.34770419 10.24065892 152.13559052 9.16015625 152.921875 C8.34933594 153.52644531 7.53851563 154.13101563 6.703125 154.75390625 C3.87699712 156.71544434 1.89920726 157.94074439 -1.59375 157.8515625 C-5.87698278 156.62483638 -8.78139543 154.50073554 -12.27734375 151.796875 C-12.96965088 151.26698975 -13.66195801 150.73710449 -14.37524414 150.19116211 C-26.50373075 140.68237357 -36.67452567 129.98983649 -44.83984375 116.921875 C-45.37738281 116.14199219 -45.91492188 115.36210938 -46.46875 114.55859375 C-57.07586185 98.52329933 -61.98186051 77.60429394 -62.0078125 58.6015625 C-62.0111409 57.73927032 -62.0144693 56.87697815 -62.01789856 55.98855591 C-62.02292964 54.17841114 -62.02530808 52.36825722 -62.02514648 50.55810547 C-62.0273431 47.79769699 -62.04556686 45.03768228 -62.06445312 42.27734375 C-62.06738589 40.51041802 -62.06937147 38.74349041 -62.0703125 36.9765625 C-62.08109077 35.74823196 -62.08109077 35.74823196 -62.09208679 34.49508667 C-62.05092714 24.13295839 -62.05092714 24.13295839 -58.83984375 20.921875 C-56.83183362 20.60739299 -54.82266717 20.29900843 -52.80908203 20.02246094 C-34.52585693 17.49066622 -18.69146099 12.1384469 -3.7421875 0.890625 C-1.83984375 -0.078125 -1.83984375 -0.078125 0 0 Z M-7.52734375 14.546875 C-21.18993632 23.18851762 -35.84346249 27.03994779 -51.83984375 28.921875 C-55.13878463 32.22081588 -53.92663508 42.4021306 -54.02734375 46.984375 C-53.60067673 79.93255012 -43.41566703 110.38770389 -19.81640625 133.94140625 C-17.88119402 135.69099608 -15.89439308 137.31429344 -13.83984375 138.921875 C-12.93878906 139.65921875 -12.03773437 140.3965625 -11.109375 141.15625 C-9.67658203 142.27773438 -9.67658203 142.27773438 -8.21484375 143.421875 C-7.33570313 144.1128125 -6.4565625 144.80375 -5.55078125 145.515625 C-2.89962017 147.16467402 -2.89962017 147.16467402 0.1953125 146.86328125 C3.47209819 145.82282624 5.35743326 144.57559216 7.97265625 142.359375 C8.83632812 141.62847656 9.7 140.89757812 10.58984375 140.14453125 C11.43804687 139.41105469 12.28625 138.67757812 13.16015625 137.921875 C13.90523438 137.32246094 14.6503125 136.72304687 15.41796875 136.10546875 C37.76217662 117.56538229 48.71638908 89.26694087 51.8515625 61.078125 C52.75744822 50.38200129 52.53317054 39.56273572 51.16015625 28.921875 C50.17917969 28.83550781 49.19820313 28.74914062 48.1875 28.66015625 C31.87761665 27.03976669 16.54420764 21.93946396 2.8828125 12.70703125 C-1.75791722 9.66425724 -3.16309096 11.68031781 -7.52734375 14.546875 Z " fill="#D2E3F0" transform="translate(61.83984375,0.078125)"/>
<path d="M0 0 C13 0 13 0 16.21875 2.5 C17.39477539 4.16674805 17.39477539 4.16674805 18.5 6 C19.38111021 7.27941802 20.2653666 8.55667358 21.15234375 9.83203125 C21.60464355 10.50830566 22.05694336 11.18458008 22.52294922 11.88134766 C25.15360402 15.65470673 28.12628613 19.15040166 31.0625 22.6875 C32.15966103 24.02300981 33.25485778 25.36013688 34.34765625 26.69921875 C35.04387085 27.54746216 35.04387085 27.54746216 35.75415039 28.4128418 C36.91071998 29.88626114 37.96097416 31.44146123 39 33 C39.66 33 40.32 33 41 33 C42.68463537 31.03612634 44.25524895 29.06196405 45.8125 27 C46.79549322 25.72159258 47.77993038 24.44429446 48.765625 23.16796875 C49.28705078 22.49169434 49.80847656 21.81541992 50.34570312 21.11865234 C53.74292316 16.76784427 57.25848692 12.51189543 60.7590332 8.24414062 C61.28327881 7.60283203 61.80752441 6.96152344 62.34765625 6.30078125 C63.04387085 5.45253784 63.04387085 5.45253784 63.75415039 4.5871582 C64.91071998 3.11373886 65.96097416 1.55853877 67 0 C71.29 0 75.58 0 80 0 C80 28.38 80 56.76 80 86 C75.71 86 71.42 86 67 86 C66.67 65.21 66.34 44.42 66 23 C57.91849669 32.94646562 49.87814125 42.89577074 42 53 C38.01085128 52.50029682 36.27114867 51.74620125 33.765625 48.60546875 C33.19070313 47.89583984 32.61578125 47.18621094 32.0234375 46.45507812 C31.43820312 45.70677734 30.85296875 44.95847656 30.25 44.1875 C29.68023437 43.48173828 29.11046875 42.77597656 28.5234375 42.04882812 C23.52561965 35.81266207 18.79763314 29.39684419 14 23 C13.67 43.79 13.34 64.58 13 86 C8.71 86 4.42 86 0 86 C0 57.62 0 29.24 0 0 Z " fill="#F2FCFC" transform="translate(443,34)"/>
<path d="M0 0 C9.16887469 8.44944713 13.79385872 18.97761299 14.76953125 31.30078125 C15.16407533 43.81659637 11.08395156 55.54293922 2.58984375 64.84375 C-8.27474465 74.90355408 -21.81384308 78.56814325 -36.359375 78.28515625 C-50.09180856 77.14225205 -59.95386453 71.85185447 -69.41015625 62.03125 C-78.33952303 51.3234978 -79.38395829 39.74217864 -78.62158203 26.26806641 C-77.79367708 17.50909969 -74.20320171 10.4975792 -68.41015625 4.03125 C-67.90871094 3.42667969 -67.40726562 2.82210937 -66.890625 2.19921875 C-50.05899408 -16.59815009 -18.40073508 -15.03074632 0 0 Z M-58.41015625 13.03125 C-64.575849 22.43426726 -66.62707789 31.14135633 -64.41015625 42.15625 C-61.81544061 51.17931519 -56.4914662 56.83392928 -48.71875 61.83984375 C-40.06160857 66.30757325 -29.16105458 66.81886331 -19.87890625 63.93359375 C-10.65043964 59.56405463 -4.09450037 53.63827633 -0.41015625 44.03125 C2.10710442 36.00642571 1.41800276 26.88592878 -2.0859375 19.3125 C-6.93601658 10.95720152 -14.19232729 4.99551658 -23.41015625 2.03125 C-36.91408073 0.85461626 -49.15110006 2.00761993 -58.41015625 13.03125 Z " fill="#F2FCFC" transform="translate(414.41015625,43.96875)"/>
<path d="M0 0 C1.36125 0.928125 1.36125 0.928125 2.75 1.875 C12.45723197 11.04294131 16.87544945 22.16847239 17.3125 35.375 C17.0154956 47.76183048 12.73692795 57.99812214 4.5 67.1875 C-5.83428529 76.92899646 -19.40430619 80.50395605 -33.30859375 80.1875 C-46.70171517 79.25445235 -57.65372642 73.99542453 -66.75 64.125 C-76.06885114 52.98058805 -77.22518865 40.01003226 -76 26 C-73.62168235 14.35164876 -66.43443967 4.96931189 -57 -2 C-39.39483179 -12.90634634 -16.83438103 -11.66893324 0 0 Z M-56 15 C-62.06343837 23.36961792 -63.44922338 31.92115986 -62.34570312 41.98730469 C-60.9780003 49.95011692 -56.52319702 56.72094263 -50.16796875 61.59765625 C-41.18801966 67.406308 -31.50141717 68.63238362 -21 67 C-11.66783808 64.06555353 -4.17741454 58.51374624 0.375 49.8125 C3.89002702 42.30868146 4.32428598 33.38489781 2.3515625 25.36328125 C-0.93146961 17.32406159 -7.33310578 10.12955889 -15 6 C-28.97590285 0.25592415 -46.14442128 3.41758911 -56 15 Z " fill="#F2FCFC" transform="translate(309,42)"/>
<path d="M0 0 C24.42 0 48.84 0 74 0 C72.17379407 4.56551482 70.51028963 7.16034862 67.5 10.9375 C63.96930658 15.42564794 60.54348418 19.95990841 57.25 24.625 C51.56426551 32.65751573 45.7129575 40.56534055 39.86279297 48.47851562 C36.07892749 53.60037181 32.30580564 58.73015405 28.53027344 63.8581543 C27.98016602 64.60492432 27.43005859 65.35169434 26.86328125 66.12109375 C26.38157471 66.7752124 25.89986816 67.42933105 25.40356445 68.10327148 C23.94431789 70.07524687 22.47190743 72.03745676 21 74 C38.49 74.33 55.98 74.66 74 75 C74 78.63 74 82.26 74 86 C48.26 86 22.52 86 -4 86 C-1.22541481 81.14447592 1.22133549 77.23365635 4.625 72.9375 C8.10931575 68.48875243 11.4887085 63.98975756 14.75 59.375 C18.70577483 53.78420314 22.74032958 48.25658352 26.8125 42.75 C31.65978634 36.19151504 36.4753437 29.61157922 41.25 23 C41.79889893 22.24041992 42.34779785 21.48083984 42.91333008 20.69824219 C44.98640458 17.82282507 47.03331923 14.95002116 49 12 C32.83 12 16.66 12 0 12 C0 8.04 0 4.08 0 0 Z " fill="#F2FCFC" transform="translate(152,34)"/>
<path d="M0 0 C15.51 0 31.02 0 47 0 C47 3.96 47 7.92 47 12 C36.11 12 25.22 12 14 12 C14 19.59 14 27.18 14 35 C24.89 35 35.78 35 47 35 C47 38.96 47 42.92 47 47 C36.11 47 25.22 47 14 47 C14 59.87 14 72.74 14 86 C9.38 86 4.76 86 0 86 C0 57.62 0 29.24 0 0 Z " fill="#F2FCFC" transform="translate(571,34)"/>
<path d="M0 0 C12.87118153 -1.35750743 12.87118153 -1.35750743 17.42578125 1.546875 C19.51477616 3.91699759 21.24556498 6.37195741 23 9 C24.26885376 10.67819435 25.56439411 12.33351581 26.86206055 13.98950195 C28.12681447 15.60975679 29.368139 17.24547673 30.60546875 18.88671875 C32.99744585 21.99667918 35.46981992 25.00243319 38 28 C39.11758585 26.57761801 40.23478165 25.15492832 41.3503418 23.73095703 C42.33628942 22.47946699 43.32880857 21.23312985 44.32739258 19.99169922 C46.93232332 16.73461582 49.38277804 13.47681439 51.6171875 9.953125 C57.71871152 0.67173695 57.71871152 0.67173695 62.04296875 -0.6015625 C66.77903634 -1.18833194 71.30603973 -0.74208155 76 0 C74.58931327 4.1943413 72.5868483 6.92832436 69.6875 10.25 C64.74332319 16.0069562 60.12797525 21.98134451 55.55541992 28.03613281 C55.03568604 28.72288086 54.51595215 29.40962891 53.98046875 30.1171875 C53.29827271 31.02380127 53.29827271 31.02380127 52.60229492 31.94873047 C51 34 51 34 48.35791016 36.57714844 C44.86246179 40.77856397 45.27182065 45.40408687 45.29296875 50.6484375 C45.27784744 51.66096588 45.26272614 52.67349426 45.24714661 53.71670532 C45.20431373 56.93636421 45.19543556 60.15508473 45.1875 63.375 C45.16435237 65.56382695 45.13898649 67.75263165 45.11132812 69.94140625 C45.04851881 75.29435364 45.01614915 80.64671671 45 86 C40.38 86 35.76 86 31 86 C31.0220752 84.70489502 31.04415039 83.40979004 31.06689453 82.07543945 C31.13628055 77.2125175 31.13865197 72.35136226 31.12207031 67.48803711 C31.12400205 65.39419384 31.14346037 63.30028314 31.18164062 61.20678711 C31.3930541 48.90663349 31.33202953 39.71414411 22.53515625 30.5168457 C21.69855469 29.68628662 20.86195313 28.85572754 20 28 C18.95546349 26.71449705 17.92853273 25.4141061 16.93359375 24.08984375 C16.1018102 23.03886642 15.26978723 21.98807851 14.4375 20.9375 C10.86422896 16.39915683 7.30973885 11.84727306 3.8125 7.25 C3.07644531 6.28578125 2.34039063 5.3215625 1.58203125 4.328125 C0 2 0 2 0 0 Z " fill="#F2FCFC" transform="translate(621,34)"/>
<path d="M0 0 C4.29 0 8.58 0 13 0 C13 28.38 13 56.76 13 86 C8.71 86 4.42 86 0 86 C0 57.62 0 29.24 0 0 Z " fill="#F2FCFC" transform="translate(540,34)"/>
<path d="M0 0 C0.99 0.66 1.98 1.32 3 2 C2.34 10.58 1.68 19.16 1 28 C5.29 28.33 9.58 28.66 14 29 C14.495 29.99 14.495 29.99 15 31 C13.79401431 33.38589187 12.53312408 35.63117282 11.15234375 37.9140625 C10.53897911 38.94676773 10.53897911 38.94676773 9.91322327 40.00033569 C9.04177314 41.46361766 8.16635656 42.92454341 7.28735352 44.38330078 C5.95868633 46.5898159 4.64339374 48.80385269 3.33007812 51.01953125 C-0.80116651 57.95059623 -4.95262622 64.68456679 -10 71 C-10.99 70.34 -11.98 69.68 -13 69 C-12.69365616 64.89534933 -12.37887415 60.79138878 -12.0625 56.6875 C-11.97548828 55.52025391 -11.88847656 54.35300781 -11.79882812 53.15039062 C-11.71181641 52.03212891 -11.62480469 50.91386719 -11.53515625 49.76171875 C-11.456604 48.73006592 -11.37805176 47.69841309 -11.29711914 46.63549805 C-11 44 -11 44 -10 41 C-14.29 41 -18.58 41 -23 41 C-24 38 -24 38 -22.6640625 35.24780273 C-21.99117187 34.15411377 -21.31828125 33.0604248 -20.625 31.93359375 C-20.262854 31.34006607 -19.90070801 30.74653839 -19.52758789 30.13502502 C-18.75544293 28.87377299 -17.97835384 27.61553671 -17.19677734 26.36010742 C-16.02318025 24.47473878 -14.86376778 22.58129575 -13.70703125 20.68554688 C-9.37225199 13.61780513 -4.8608795 6.72180704 0 0 Z " fill="#DDECF4" transform="translate(65,37)"/>
</svg>
