<?xml version="1.0" encoding="UTF-8"?>
<svg version="1.1" xmlns="http://www.w3.org/2000/svg" width="131" height="158">
<path d="M0 0 C3.13968426 1.33990142 5.85291585 3.25639604 8.66015625 5.171875 C21.83122186 13.85151987 36.82298533 19.07849126 52.671875 19.6484375 C55.43028337 19.9515593 56.9497953 20.22645529 59.16015625 21.921875 C64.50014487 35.84968115 62.45768369 51.6020656 60.16015625 65.921875 C59.96306141 67.2850869 59.76645697 68.64836978 59.5703125 70.01171875 C54.68609871 102.25428214 38.65085125 130.95572387 12.3984375 150.55859375 C11.31999695 151.34770419 10.24065892 152.13559052 9.16015625 152.921875 C8.34933594 153.52644531 7.53851563 154.13101563 6.703125 154.75390625 C3.87699712 156.71544434 1.89920726 157.94074439 -1.59375 157.8515625 C-5.87698278 156.62483638 -8.78139543 154.50073554 -12.27734375 151.796875 C-12.96965088 151.26698975 -13.66195801 150.73710449 -14.37524414 150.19116211 C-26.50373075 140.68237357 -36.67452567 129.98983649 -44.83984375 116.921875 C-45.37738281 116.14199219 -45.91492188 115.36210938 -46.46875 114.55859375 C-57.07586185 98.52329933 -61.98186051 77.60429394 -62.0078125 58.6015625 C-62.0111409 57.73927032 -62.0144693 56.87697815 -62.01789856 55.98855591 C-62.02292964 54.17841114 -62.02530808 52.36825722 -62.02514648 50.55810547 C-62.0273431 47.79769699 -62.04556686 45.03768228 -62.06445312 42.27734375 C-62.06738589 40.51041802 -62.06937147 38.74349041 -62.0703125 36.9765625 C-62.08109077 35.74823196 -62.08109077 35.74823196 -62.09208679 34.49508667 C-62.05092714 24.13295839 -62.05092714 24.13295839 -58.83984375 20.921875 C-56.83183362 20.60739299 -54.82266717 20.29900843 -52.80908203 20.02246094 C-34.52585693 17.49066622 -18.69146099 12.1384469 -3.7421875 0.890625 C-1.83984375 -0.078125 -1.83984375 -0.078125 0 0 Z M-7.52734375 14.546875 C-21.18993632 23.18851762 -35.84346249 27.03994779 -51.83984375 28.921875 C-55.13878463 32.22081588 -53.92663508 42.4021306 -54.02734375 46.984375 C-53.60067673 79.93255012 -43.41566703 110.38770389 -19.81640625 133.94140625 C-17.88119402 135.69099608 -15.89439308 137.31429344 -13.83984375 138.921875 C-12.93878906 139.65921875 -12.03773437 140.3965625 -11.109375 141.15625 C-9.67658203 142.27773438 -9.67658203 142.27773438 -8.21484375 143.421875 C-7.33570313 144.1128125 -6.4565625 144.80375 -5.55078125 145.515625 C-2.89962017 147.16467402 -2.89962017 147.16467402 0.1953125 146.86328125 C3.47209819 145.82282624 5.35743326 144.57559216 7.97265625 142.359375 C8.83632812 141.62847656 9.7 140.89757812 10.58984375 140.14453125 C11.43804687 139.41105469 12.28625 138.67757812 13.16015625 137.921875 C13.90523438 137.32246094 14.6503125 136.72304687 15.41796875 136.10546875 C37.76217662 117.56538229 48.71638908 89.26694087 51.8515625 61.078125 C52.75744822 50.38200129 52.53317054 39.56273572 51.16015625 28.921875 C50.17917969 28.83550781 49.19820313 28.74914062 48.1875 28.66015625 C31.87761665 27.03976669 16.54420764 21.93946396 2.8828125 12.70703125 C-1.75791722 9.66425724 -3.16309096 11.68031781 -7.52734375 14.546875 Z " fill="#D2E3F0" transform="translate(61.83984375,0.078125)"/>
<path d="M0 0 C0.99 0.66 1.98 1.32 3 2 C2.34 10.58 1.68 19.16 1 28 C5.29 28.33 9.58 28.66 14 29 C14.495 29.99 14.495 29.99 15 31 C13.79401431 33.38589187 12.53312408 35.63117282 11.15234375 37.9140625 C10.53897911 38.94676773 10.53897911 38.94676773 9.91322327 40.00033569 C9.04177314 41.46361766 8.16635656 42.92454341 7.28735352 44.38330078 C5.95868633 46.5898159 4.64339374 48.80385269 3.33007812 51.01953125 C-0.80116651 57.95059623 -4.95262622 64.68456679 -10 71 C-10.99 70.34 -11.98 69.68 -13 69 C-12.69365616 64.89534933 -12.37887415 60.79138878 -12.0625 56.6875 C-11.97548828 55.52025391 -11.88847656 54.35300781 -11.79882812 53.15039062 C-11.71181641 52.03212891 -11.62480469 50.91386719 -11.53515625 49.76171875 C-11.456604 48.73006592 -11.37805176 47.69841309 -11.29711914 46.63549805 C-11 44 -11 44 -10 41 C-14.29 41 -18.58 41 -23 41 C-24 38 -24 38 -22.6640625 35.24780273 C-21.99117187 34.15411377 -21.31828125 33.0604248 -20.625 31.93359375 C-20.262854 31.34006607 -19.90070801 30.74653839 -19.52758789 30.13502502 C-18.75544293 28.87377299 -17.97835384 27.61553671 -17.19677734 26.36010742 C-16.02318025 24.47473878 -14.86376778 22.58129575 -13.70703125 20.68554688 C-9.37225199 13.61780513 -4.8608795 6.72180704 0 0 Z " fill="#DDECF4" transform="translate(65,37)"/>
</svg>
